<?xml version="1.0" standalone="no"?>
<!DOCTYPE svg PUBLIC "-//W3C//DTD SVG 20010904//EN"
 "http://www.w3.org/TR/2001/REC-SVG-20010904/DTD/svg10.dtd">
<svg version="1.0" xmlns="http://www.w3.org/2000/svg"
 width="2500.000000pt" height="2500.000000pt" viewBox="0 0 2500.000000 2500.000000"
 preserveAspectRatio="xMidYMid meet">

<g transform="translate(0.000000,2500.000000) scale(0.100000,-0.100000)"
fill="#000000" stroke="none">
<path d="M5600 24604 c-424 -28 -749 -77 -1105 -169 -1215 -312 -2281 -1031
-3033 -2045 -540 -727 -906 -1629 -1021 -2520 -40 -304 -46 -402 -45 -740 1
-432 29 -709 110 -1104 388 -1866 1725 -3399 3524 -4039 1006 -358 2106 -411
3146 -152 1346 334 2494 1149 3256 2310 975 1484 1165 3351 512 5008 -334 845
-882 1602 -1587 2190 -843 704 -1869 1131 -2987 1242 -146 15 -649 27 -770 19z
m716 -799 c960 -99 1830 -466 2569 -1083 128 -107 476 -458 576 -582 261 -321
435 -589 604 -935 550 -1121 631 -2395 229 -3577 -188 -552 -462 -1039 -842
-1498 -123 -148 -434 -459 -582 -582 -478 -396 -987 -677 -1570 -866 -1149
-374 -2406 -285 -3495 248 -496 243 -861 504 -1261 904 -241 241 -408 444
-579 701 -435 654 -685 1351 -771 2150 -21 196 -24 668 -5 860 77 796 325
1514 748 2160 496 757 1196 1351 2026 1721 523 233 1058 359 1682 398 121 8
525 -4 671 -19z"/>
<path d="M5607 23040 c-1372 -90 -2603 -901 -3227 -2125 -413 -811 -530 -1729
-334 -2620 297 -1343 1285 -2433 2599 -2867 883 -291 1873 -250 2735 114 843
356 1545 1011 1959 1828 258 508 394 1020 420 1587 61 1300 -518 2528 -1564
3313 -559 420 -1216 678 -1925 755 -177 19 -490 26 -663 15z m-137 -1877 l0
-1078 -760 760 c-418 418 -760 763 -760 766 0 9 142 109 253 179 270 169 583
303 890 380 121 30 309 67 355 69 l22 1 0 -1077z m1020 1037 c332 -66 666
-195 963 -371 109 -65 317 -208 317 -218 0 -3 -342 -348 -760 -766 l-760 -760
0 1079 0 1078 48 -6 c26 -4 112 -20 192 -36z m-2335 -1910 l760 -760 -1078 0
-1079 0 7 53 c61 466 271 985 562 1390 31 42 59 77 62 77 3 0 348 -342 766
-760z m4246 667 c276 -385 459 -823 539 -1292 11 -64 20 -121 20 -126 0 -5
-445 -9 -1077 -9 l-1078 0 760 760 c418 418 762 760 765 760 3 0 35 -42 71
-93z m-4246 -2967 c-418 -418 -762 -760 -765 -760 -9 0 -113 147 -182 258
-162 256 -290 552 -368 847 -27 101 -80 367 -80 401 0 12 149 14 1077 14
l1078 0 -760 -760z m4805 751 c0 -31 -45 -260 -71 -363 -64 -254 -174 -535
-294 -748 -51 -91 -203 -325 -250 -385 -15 -19 -49 14 -778 743 l-762 762
1078 0 c632 0 1077 -4 1077 -9z m-3494 -2698 c-11 -11 -310 49 -471 94 -313
88 -685 268 -942 455 -48 35 -91 66 -97 70 -7 5 299 317 749 768 l760 760 3
-1072 c1 -589 0 -1073 -2 -1075z m2304 627 c0 -8 -175 -130 -274 -191 -275
-169 -561 -289 -874 -368 -103 -26 -332 -71 -363 -71 -5 0 -9 445 -9 1077 l0
1078 760 -760 c418 -418 760 -762 760 -765z"/>
<path d="M14350 24594 c-141 -38 -252 -159 -280 -305 -13 -68 -13 -556 1 -734
56 -753 364 -1430 889 -1955 233 -234 491 -419 790 -569 413 -207 796 -304
1288 -327 l152 -7 0 -393 0 -393 -52 -5 c-29 -3 -111 -10 -183 -16 -1152 -97
-2322 -510 -3296 -1166 -1379 -928 -2386 -2312 -2840 -3904 -128 -449 -206
-878 -251 -1380 -20 -224 -17 -937 5 -1165 29 -294 98 -743 143 -922 l6 -23
-4989 0 c-5455 0 -5046 4 -5149 -56 -63 -37 -139 -125 -166 -192 -22 -55 -23
-66 -22 -322 8 -1507 403 -3128 1105 -4533 1412 -2825 4014 -4869 7090 -5571
2512 -574 5143 -208 7409 1030 1496 817 2773 1989 3715 3409 274 412 446 710
663 1144 l127 255 115 55 c1577 757 2820 2080 3475 3701 607 1502 678 3174
199 4718 -250 807 -658 1587 -1177 2250 -299 382 -706 799 -1080 1105 -1091
895 -2451 1450 -3832 1566 -71 6 -154 14 -183 17 l-53 6 4 701 c4 730 5 744
52 1017 116 676 467 1369 944 1863 l56 57 -275 275 c-151 151 -277 274 -280
273 -3 -2 -52 -52 -109 -113 -247 -262 -487 -600 -663 -932 l-60 -113 -70 122
c-82 144 -171 276 -277 408 -88 112 -334 360 -441 447 -495 399 -1065 628
-1705 682 -189 17 -728 13 -795 -5z m881 -790 c132 -18 337 -69 459 -114 244
-89 513 -248 715 -423 475 -409 767 -1027 778 -1647 l2 -135 -125 3 c-1078 26
-1986 807 -2180 1876 -22 121 -46 425 -36 452 6 15 20 16 140 11 73 -4 184
-14 247 -23z m2634 -4674 c881 -44 1692 -252 2470 -635 1743 -857 2988 -2475
3370 -4376 183 -913 161 -1848 -65 -2749 -350 -1396 -1164 -2618 -2325 -3491
-108 -82 -349 -249 -358 -249 -4 0 1 19 9 43 38 105 141 462 194 672 207 818
330 1774 318 2490 -3 209 -3 210 -32 270 -54 109 -156 189 -274 214 -39 8
-1337 11 -4851 11 l-4798 0 -27 118 c-70 307 -120 623 -148 932 -20 221 -17
850 5 1070 35 352 81 617 162 948 366 1481 1276 2787 2545 3654 900 615 1992
995 3065 1068 317 21 470 23 740 10z m-15901 -8647 c3 -38 8 -113 11 -168 20
-327 80 -769 155 -1145 203 -1014 575 -1974 1108 -2860 1105 -1839 2832 -3222
4872 -3900 1855 -616 3883 -607 5730 26 1625 557 3040 1551 4111 2889 966
1206 1602 2637 1853 4165 47 287 85 639 108 1015 l3 40 389 3 389 2 -6 -152
c-14 -306 -62 -737 -123 -1096 -372 -2201 -1499 -4221 -3179 -5698 -693 -610
-1502 -1138 -2328 -1520 -1611 -747 -3371 -1041 -5132 -858 -1809 188 -3538
882 -4974 1997 -582 453 -1144 1003 -1600 1566 -1145 1416 -1877 3129 -2100
4916 -34 271 -71 690 -71 813 l0 32 389 0 389 0 6 -67z m17162 -40 c-32 -512
-112 -1019 -238 -1518 -647 -2560 -2489 -4653 -4948 -5620 -2005 -789 -4242
-757 -6226 91 -2673 1141 -4546 3621 -4913 6504 -29 225 -59 597 -52 643 0 4
3687 7 8192 7 l8191 0 -6 -107z"/>
<path d="M17580 17973 l0 -391 158 -6 c696 -31 1297 -182 1907 -481 479 -234
860 -508 1246 -894 248 -249 400 -433 586 -711 462 -690 751 -1559 779 -2345
2 -82 7 -174 10 -202 l5 -53 391 0 390 0 -6 148 c-17 375 -55 686 -121 997
-349 1630 -1432 3023 -2920 3755 -713 351 -1441 534 -2247 566 l-178 7 0 -390z"/>
<path d="M4992 9758 c-267 -27 -500 -194 -618 -443 -184 -390 -12 -861 379
-1041 191 -87 434 -90 629 -8 189 79 363 261 428 449 67 192 64 371 -9 561
-98 252 -362 457 -620 479 -36 4 -75 7 -86 9 -11 2 -58 -1 -103 -6z"/>
<path d="M10850 9758 c-181 -20 -332 -93 -464 -224 -223 -222 -288 -559 -166
-855 71 -170 222 -326 393 -405 150 -68 362 -87 520 -45 275 72 484 285 563
571 27 98 25 281 -4 383 -108 380 -455 617 -842 575z"/>
<path d="M16706 9758 c-266 -29 -512 -207 -619 -451 -54 -121 -62 -162 -62
-327 1 -143 3 -161 28 -235 91 -261 291 -448 552 -516 109 -29 279 -29 388 0
276 72 494 296 564 577 24 99 22 275 -5 375 -102 378 -455 619 -846 577z"/>
<path d="M8056 5845 c-166 -35 -306 -114 -421 -237 -124 -134 -186 -270 -208
-458 -24 -220 61 -460 221 -620 163 -161 364 -238 596 -227 207 10 356 77 507
227 86 85 102 107 147 200 68 142 86 228 79 384 -3 85 -11 142 -27 191 -81
257 -282 453 -540 525 -98 27 -261 34 -354 15z"/>
<path d="M13541 5849 c-297 -53 -548 -284 -627 -579 -27 -100 -25 -292 4 -394
63 -219 210 -398 407 -495 109 -54 179 -71 315 -78 234 -10 413 59 580 227
168 169 237 346 227 580 -7 136 -24 206 -78 315 -96 196 -277 345 -489 405
-87 24 -257 34 -339 19z"/>
</g>
</svg>
