<?xml version="1.0" standalone="no"?>
<!DOCTYPE svg PUBLIC "-//W3C//DTD SVG 20010904//EN"
 "http://www.w3.org/TR/2001/REC-SVG-20010904/DTD/svg10.dtd">
<svg version="1.0" xmlns="http://www.w3.org/2000/svg"
 width="2500.000000pt" height="2500.000000pt" viewBox="0 0 2500.000000 2500.000000"
 preserveAspectRatio="xMidYMid meet">

<g transform="translate(0.000000,2500.000000) scale(0.100000,-0.100000)"
fill="#000000" stroke="none">
<path d="M20287 17670 c-296 -54 -528 -239 -610 -488 -51 -154 -51 -127 -7
-1518 22 -709 44 -1406 50 -1549 5 -143 10 -295 10 -337 l0 -77 -757 6 c-1357
10 -2731 -27 -4923 -132 -1802 -87 -2438 -117 -2850 -134 -2404 -104 -4154
-115 -5772 -37 -142 6 -259 14 -262 17 -2 2 -9 173 -16 379 -27 951 -44 1418
-80 2315 -22 537 -31 654 -62 754 -69 227 -254 424 -479 511 -138 53 -200 64
-359 63 -174 0 -256 -19 -400 -90 -79 -38 -110 -61 -181 -132 -68 -69 -94
-103 -127 -171 -87 -177 -91 -233 -63 -855 97 -2179 147 -4311 157 -6730 3
-693 9 -1319 14 -1390 10 -149 33 -233 92 -346 91 -178 257 -306 484 -375 81
-25 104 -27 249 -28 188 0 265 17 410 88 219 108 357 287 407 523 20 96 20
117 14 1208 -3 611 -11 1444 -17 1853 -6 409 -10 745 -8 746 2 2 128 -2 279
-10 623 -30 923 -36 1902 -41 1347 -7 2070 8 3743 77 463 20 905 40 2450 115
1785 86 2745 123 3785 145 538 11 1857 13 2208 3 225 -6 233 -7 236 -27 3 -12
16 -258 31 -547 46 -929 109 -1843 186 -2699 39 -444 48 -489 124 -641 209
-414 791 -593 1215 -373 187 96 301 247 344 457 21 102 20 161 -9 475 -165
1801 -253 3533 -365 7207 -16 539 -32 1011 -35 1049 -26 287 -189 528 -440
651 -127 61 -233 86 -385 90 -74 2 -157 0 -183 -5z"/>
<path d="M22511 16275 c-150 -33 -262 -85 -373 -173 -128 -102 -216 -242 -260
-417 -22 -87 -23 -104 -21 -487 2 -534 24 -1036 73 -1728 21 -288 26 -345 115
-1403 77 -926 107 -1366 130 -1907 13 -320 74 -482 239 -645 88 -86 151 -128
273 -180 171 -73 399 -90 585 -41 323 83 527 311 567 635 18 143 -30 995 -109
1920 -11 129 -20 242 -20 251 0 15 15 19 113 25 169 10 484 43 568 59 143 27
236 74 336 169 110 104 200 260 244 427 30 112 33 320 5 420 -73 266 -256 464
-507 549 -129 44 -215 54 -396 47 -87 -3 -233 -9 -325 -12 l-166 -7 -6 44
c-18 146 -46 823 -56 1369 -9 527 -9 528 -80 675 -104 215 -305 360 -568 411
-92 18 -276 17 -361 -1z"/>
<path d="M1968 15910 c-186 -34 -344 -116 -464 -241 -78 -82 -125 -162 -166
-280 l-33 -94 2 -807 1 -806 -311 -5 c-343 -5 -364 -8 -505 -73 -189 -86 -353
-257 -428 -442 -47 -118 -59 -180 -58 -317 0 -155 20 -241 90 -375 109 -211
306 -368 540 -431 70 -19 114 -22 387 -26 l307 -5 1 -232 c1 -127 5 -510 9
-851 9 -698 8 -690 85 -850 54 -111 123 -197 212 -264 352 -264 880 -227 1170
82 103 110 168 250 194 414 12 82 9 736 -11 2203 -6 382 -14 1149 -20 1704
-11 1084 -11 1085 -65 1219 -91 227 -279 388 -535 459 -84 23 -318 34 -402 18z"/>
</g>
</svg>
